<?xml version="1.0" encoding="UTF-8"?>
<svg width="24px" height="24px" viewBox="0 0 24 24" version="1.1" xmlns="http://www.w3.org/2000/svg" xmlns:xlink="http://www.w3.org/1999/xlink">
    <title>_Asset/SVG/OSD/icn_osd_volume_mute</title>
    <g id="Symbols" stroke="none" stroke-width="1" fill="none" fill-rule="evenodd">
        <g id="Path" fill="#FFFFFF">
            <path d="M10.8904344,4.7279649 C10.9613596,4.81662142 11,4.92677668 11,5.04031242 L11,18.9596876 C11,19.23583 10.7761424,19.4596876 10.5,19.4596876 C10.3864643,19.4596876 10.276309,19.4210472 10.1876525,19.350122 L6,16 L4.2819426,16 C3.83618323,16 3.67454011,15.9535872 3.51157715,15.8664336 C3.34861419,15.7792801 3.2207199,15.6513858 3.13356635,15.4884229 C3.04641281,15.3254599 3,15.1638168 3,14.7180574 L3,9.2819426 C3,8.83618323 3.04641281,8.67454011 3.13356635,8.51157715 C3.2207199,8.34861419 3.34861419,8.2207199 3.51157715,8.13356635 C3.67454011,8.04641281 3.83618323,8 4.2819426,8 L6,8 L10.1876525,4.64987802 C10.4032834,4.47737324 10.7179296,4.51233393 10.8904344,4.7279649 Z M20.4181661,9.52577105 C20.6824075,9.7900125 20.7064295,10.2035072 20.4902319,10.4948856 L20.4181402,10.5783901 L20.4181402,10.5783901 L18.521,12.474294 L20.4385183,14.3870853 C20.7027724,14.6507314 20.7272435,15.0637426 20.5116196,15.3550484 L20.4391241,15.4391237 L20.4391241,15.4391237 C20.1483462,15.7299016 19.6769859,15.730173 19.3858734,15.4397302 L17.469,13.527294 L15.5655939,15.43046 C15.2748956,15.7211298 14.8036072,15.7211182 14.5129232,15.4304341 C14.2486817,15.1661927 14.2246598,14.752698 14.4408573,14.4613196 L14.512949,14.3778151 L14.512949,14.3778151 L16.415,12.475294 L14.5492956,10.61428 C14.2850415,10.3506339 14.2605703,9.93762281 14.4761943,9.64631697 L14.5480846,9.56284745 C14.5482862,9.5626454 14.5484879,9.56244346 14.5486898,9.56224164 C14.8394676,9.27146378 15.3108279,9.27119235 15.6019405,9.56163513 L17.467,11.422294 L19.3654953,9.52574521 C19.6561936,9.23507544 20.127482,9.23508701 20.4181661,9.52577105 Z"></path>
        </g>
    </g>
</svg>