<svg xmlns="http://www.w3.org/2000/svg" width="20" height="160" viewBox="0 0 20 160"><g fill="none" fill-rule="evenodd"><g transform="translate(0 140)"><g fill="#E64040" transform="translate(1 1)"><rect width="17" height="17" x=".5" y=".5" fill-opacity=".08" stroke="#E64040" rx="8.5"/><rect width="10" height="10" x="4" y="4" rx="5"/></g><rect width="20" height="20"/></g><g transform="translate(0 120)"><rect width="17" height="17" x="1.5" y="1.5" fill="#E64040" fill-opacity=".08" stroke="#E64040" rx="8.5"/><rect width="20" height="20"/></g><g transform="translate(0 100)"><g transform="translate(1 1)"><rect width="17" height="17" x=".5" y=".5" fill="#C6D4E0" fill-opacity=".2" stroke="#C6D4E0" stroke-opacity=".7" rx="8.5"/><rect width="10" height="10" x="4" y="4" fill="#057FEB" fill-opacity=".4" rx="5"/></g><rect width="20" height="20"/></g><g transform="translate(0 80)"><g transform="translate(1 1)"><rect width="17" height="17" x=".5" y=".5" fill="#FFF" stroke="#7C8A98" stroke-opacity=".5" rx="8.5"/><rect width="10" height="10" x="4" y="4" fill="#057FEB" rx="5"/></g><rect width="20" height="20"/></g><g transform="translate(0 60)"><g transform="translate(1 1)"><rect width="17" height="17" x=".5" y=".5" fill="#FFF" stroke="#C6D4E0" stroke-opacity=".7" rx="8.5"/><rect width="10" height="10" x="4" y="4" fill="#057FEB" rx="5"/></g><rect width="20" height="20"/></g><g transform="translate(0 40)"><rect width="17" height="17" x="1.5" y="1.5" fill="#C6D4E0" fill-opacity=".2" stroke="#C6D4E0" stroke-opacity=".7" rx="8.5"/><rect width="20" height="20"/></g><g transform="translate(0 20)"><rect width="17" height="17" x="1.5" y="1.5" fill="#FFF" stroke="#7C8A98" stroke-opacity=".5" rx="8.5"/><rect width="20" height="20"/></g><rect width="17" height="17" x="1.5" y="1.5" fill="#FFF" stroke="#C6D4E0" stroke-opacity=".7" rx="8.5"/><rect width="20" height="20"/></g></svg>