<?xml version="1.0" encoding="UTF-8"?>
<svg width="24px" height="24px" viewBox="0 0 24 24" version="1.1" xmlns="http://www.w3.org/2000/svg" xmlns:xlink="http://www.w3.org/1999/xlink">
    <title>_Asset/SVG/OSD/icn_osd_volume</title>
    <g id="Symbols" stroke="none" stroke-width="1" fill="none" fill-rule="evenodd">
        <g id="Path" fill="#FFFFFF">
            <path d="M10.8904344,4.7279649 C10.9613596,4.81662142 11,4.92677668 11,5.04031242 L11,18.9596876 C11,19.23583 10.7761424,19.4596876 10.5,19.4596876 C10.3864643,19.4596876 10.276309,19.4210472 10.1876525,19.350122 L6,16 L4.2819426,16 C3.83618323,16 3.67454011,15.9535872 3.51157715,15.8664336 C3.34861419,15.7792801 3.2207199,15.6513858 3.13356635,15.4884229 C3.04641281,15.3254599 3,15.1638168 3,14.7180574 L3,9.2819426 C3,8.83618323 3.04641281,8.67454011 3.13356635,8.51157715 C3.2207199,8.34861419 3.34861419,8.2207199 3.51157715,8.13356635 C3.67454011,8.04641281 3.83618323,8 4.2819426,8 L6,8 L10.1876525,4.64987802 C10.4032834,4.47737324 10.7179296,4.51233393 10.8904344,4.7279649 Z M16.2131691,6.16782301 C18.0662735,7.66413329 19,9.56728642 19,11.8366441 C19,14.0936429 18.0778591,16.0909102 16.2503563,17.7998626 C15.9807512,18.0519784 15.5249569,18.0680696 15.2323113,17.8358034 C14.9396656,17.6035371 14.9209876,17.2108679 15.1905927,16.9587521 C16.7751629,15.4769732 17.5590586,13.7791317 17.5590586,11.8366441 C17.5590586,9.90651555 16.7867485,8.33236687 15.2277798,7.07355983 C14.9374597,6.83913755 14.9226957,6.44634465 15.1948035,6.19623234 C15.4669112,5.94612002 15.9228491,5.93340073 16.2131691,6.16782301 Z M14.2510291,8.20682089 C15.4115311,9.33896157 16,10.6022299 16,11.9769322 C16,13.349414 15.4135915,14.6253114 14.2574621,15.7868058 C14.0127328,16.0326707 13.5678103,16.0715889 13.2636999,15.8737318 C12.9595896,15.6758748 12.9114517,15.3161671 13.1561811,15.0703021 C14.1152271,14.1068058 14.5864063,13.0816221 14.5864063,11.9769322 C14.5864063,10.8744629 14.1172875,9.86740389 13.1626141,8.93606158 C12.9135343,8.693069 12.9552652,8.33283851 13.2558227,8.13146425 C13.5563802,7.93009 14.0019493,7.96382831 14.2510291,8.20682089 Z"></path>
        </g>
    </g>
</svg>